<?xml version="1.0" encoding="UTF-8" standalone="no"?>
<svg
   xmlns:dc="http://purl.org/dc/elements/1.1/"
   xmlns:cc="http://creativecommons.org/ns#"
   xmlns:rdf="http://www.w3.org/1999/02/22-rdf-syntax-ns#"
   xmlns:svg="http://www.w3.org/2000/svg"
   xmlns="http://www.w3.org/2000/svg"
   xmlns:sodipodi="http://sodipodi.sourceforge.net/DTD/sodipodi-0.dtd"
   xmlns:inkscape="http://www.inkscape.org/namespaces/inkscape"
   version="1.1"
   viewBox="0.0 0.0 960.0 720.0"
   fill="none"
   stroke="none"
   stroke-linecap="square"
   stroke-miterlimit="10"
   id="svg93"
   sodipodi:docname="ArbolDecisionJuego20preguntas.svg"
   inkscape:version="0.92.3 (2405546, 2018-03-11)">
  <metadata
     id="metadata99">
    <rdf:RDF>
      <cc:Work
         rdf:about="">
        <dc:format>image/svg+xml</dc:format>
        <dc:type
           rdf:resource="http://purl.org/dc/dcmitype/StillImage" />
      </cc:Work>
    </rdf:RDF>
  </metadata>
  <defs
     id="defs97" />
  <sodipodi:namedview
     pagecolor="#ffffff"
     bordercolor="#666666"
     borderopacity="1"
     objecttolerance="10"
     gridtolerance="10"
     guidetolerance="10"
     inkscape:pageopacity="0"
     inkscape:pageshadow="2"
     inkscape:window-width="1920"
     inkscape:window-height="1017"
     id="namedview95"
     showgrid="false"
     inkscape:zoom="0.94460856"
     inkscape:cx="509.38114"
     inkscape:cy="310.51915"
     inkscape:window-x="1680"
     inkscape:window-y="30"
     inkscape:window-maximized="1"
     inkscape:current-layer="svg93" />
  <clipPath
     id="p.0">
    <path
       d="m0 0l960.0 0l0 720.0l-960.0 0l0 -720.0z"
       clip-rule="nonzero"
       id="path2" />
  </clipPath>
  <g
     clip-path="url(#p.0)"
     id="g91"
     transform="matrix(1.4168394,0,0,1.6998784,-106.9226,-122.80219)">
    <path
       d="M 0,0 H 960 V 720 H 0 Z"
       id="path5"
       inkscape:connector-curvature="0"
       style="fill:#000000;fill-opacity:0;fill-rule:evenodd" />
    <path
       d="m 411.47507,158.69292 v 0 c 0,-6.49117 5.26212,-11.75328 11.75327,-11.75328 h 80.8084 c 3.11716,0 6.10666,1.23828 8.31086,3.44246 2.20416,2.20416 3.44244,5.19365 3.44244,8.31082 v 47.01312 c 0,6.49115 -5.26215,11.75328 -11.7533,11.75328 h -80.80841 c -6.49115,0 -11.75326,-5.26213 -11.75326,-11.75328 z"
       id="path7"
       inkscape:connector-curvature="0"
       style="fill:#a4c2f4;fill-rule:evenodd" />
    <path
       d="m 411.47507,158.69292 v 0 c 0,-6.49117 5.26212,-11.75328 11.75327,-11.75328 h 80.8084 c 3.11716,0 6.10666,1.23828 8.31086,3.44246 2.20416,2.20416 3.44244,5.19365 3.44244,8.31082 v 47.01312 c 0,6.49115 -5.26215,11.75328 -11.7533,11.75328 h -80.80841 c -6.49115,0 -11.75326,-5.26213 -11.75326,-11.75328 z"
       id="path9"
       inkscape:connector-curvature="0"
       style="fill-rule:evenodd;stroke:#000000;stroke-width:1;stroke-linecap:butt;stroke-linejoin:round" />
    <path
       d="m 427.47507,149.88452 h 84.81888 v 64.62991 h -84.81888 z"
       id="path11"
       inkscape:connector-curvature="0"
       style="fill:#a4c2f4;fill-rule:evenodd" />
    <path
       d="m 443.14694,167.13264 v 1.85937 h -1.85938 v -1.85937 z m -0.10938,3.28125 q 0.0156,0.3125 0.0156,0.46875 0,1 -0.28125,1.70312 -0.1875,0.53125 -0.64063,1.0625 -0.32812,0.39063 -1.1875,1.14063 -0.84375,0.75 -1.09375,1.20312 -0.25,0.4375 -0.25,0.96875 0,0.96875 0.75,1.6875 0.75,0.71875 1.82813,0.71875 1.03125,0 1.73437,-0.65625 0.71875,-0.65625 0.9375,-2.04687 l 1.67188,0.1875 q -0.23438,1.85937 -1.35938,2.85937 -1.125,1 -2.95312,1 -1.96875,0 -3.14063,-1.0625 -1.15625,-1.0625 -1.15625,-2.57812 0,-0.89063 0.40625,-1.60938 0.40625,-0.73437 1.59375,-1.79687 0.8125,-0.71875 1.0625,-1.04688 0.25,-0.34375 0.35938,-0.78125 0.10937,-0.4375 0.125,-1.42187 z m 12.69285,3.28125 1.6875,0.20312 q -0.40625,1.48438 -1.48438,2.3125 -1.07812,0.8125 -2.76562,0.8125 -2.125,0 -3.375,-1.29687 -1.23438,-1.3125 -1.23438,-3.67188 0,-2.45312 1.25,-3.79687 1.26563,-1.34375 3.26563,-1.34375 1.9375,0 3.15625,1.32812 1.23437,1.3125 1.23437,3.70313 0,0.15625 0,0.4375 h -7.21875 q 0.0937,1.59375 0.90625,2.45312 0.8125,0.84375 2.01563,0.84375 0.90625,0 1.54687,-0.46875 0.64063,-0.48437 1.01563,-1.51562 z m -5.39063,-2.65625 h 5.40625 q -0.10937,-1.21875 -0.625,-1.82813 -0.78125,-0.95312 -2.03125,-0.95312 -1.125,0 -1.90625,0.76562 -0.76562,0.75 -0.84375,2.01563 z m 8.48511,2.875 1.625,-0.25 q 0.125,0.96875 0.75,1.5 0.625,0.51562 1.75,0.51562 1.125,0 1.67187,-0.45312 0.54688,-0.46875 0.54688,-1.09375 0,-0.54688 -0.48438,-0.875 -0.32812,-0.21875 -1.67187,-0.54688 -1.8125,-0.46875 -2.51563,-0.79687 -0.6875,-0.32813 -1.04687,-0.90625 -0.35938,-0.59375 -0.35938,-1.3125 0,-0.64063 0.29688,-1.1875 0.29687,-0.5625 0.8125,-0.92188 0.375,-0.28125 1.03125,-0.46875 0.67187,-0.20312 1.42187,-0.20312 1.14063,0 2,0.32812 0.85938,0.32813 1.26563,0.89063 0.42187,0.5625 0.57812,1.5 l -1.60937,0.21875 q -0.10938,-0.75 -0.64063,-1.17188 -0.51562,-0.42187 -1.46875,-0.42187 -1.14062,0 -1.625,0.375 -0.46875,0.375 -0.46875,0.875 0,0.3125 0.1875,0.57812 0.20313,0.26563 0.64063,0.4375 0.23437,0.0937 1.4375,0.42188 1.75,0.45312 2.4375,0.75 0.6875,0.29687 1.07812,0.85937 0.39063,0.5625 0.39063,1.40625 0,0.82813 -0.48438,1.54688 -0.46875,0.71875 -1.375,1.125 -0.90625,0.39062 -2.04687,0.39062 -1.875,0 -2.875,-0.78125 -0.98438,-0.78125 -1.25,-2.32812 z m 21.49579,2.89062 v -1.42187 q -1.125,1.64062 -3.0625,1.64062 -0.85938,0 -1.60938,-0.32812 -0.73437,-0.32813 -1.09375,-0.82813 -0.35937,-0.5 -0.5,-1.21875 -0.10937,-0.46875 -0.10937,-1.53125 v -5.98437 h 1.64062 v 5.35937 q 0,1.28125 0.10938,1.73438 0.15625,0.64062 0.65625,1.01562 0.5,0.375 1.23437,0.375 0.73438,0 1.375,-0.375 0.65625,-0.39062 0.92188,-1.03125 0.26562,-0.65625 0.26562,-1.89062 v -5.1875 h 1.64063 v 9.67187 z m 4.0476,0 v -9.67187 h 1.46875 v 1.375 q 1.0625,-1.59375 3.07813,-1.59375 0.875,0 1.60937,0.3125 0.73438,0.3125 1.09375,0.82812 0.375,0.5 0.51563,1.20313 0.0937,0.45312 0.0937,1.59375 v 5.95312 h -1.64063 v -5.89062 q 0,-1 -0.20312,-1.48438 -0.1875,-0.5 -0.67188,-0.79687 -0.48437,-0.29688 -1.14062,-0.29688 -1.04688,0 -1.8125,0.67188 -0.75,0.65625 -0.75,2.51562 v 5.28125 z"
       id="path13"
       inkscape:connector-curvature="0"
       style="fill:#000000;fill-rule:nonzero" />
    <path
       d="m 444.02194,198.01701 q -0.92188,0.76562 -1.76563,1.09375 -0.82812,0.3125 -1.79687,0.3125 -1.59375,0 -2.45313,-0.78125 -0.85937,-0.78125 -0.85937,-1.98438 0,-0.71875 0.32812,-1.29687 0.32813,-0.59375 0.84375,-0.9375 0.53125,-0.35938 1.1875,-0.54688 0.46875,-0.125 1.45313,-0.25 1.98437,-0.23437 2.92187,-0.5625 0.0156,-0.34375 0.0156,-0.42187 0,-1 -0.46875,-1.42188 -0.625,-0.54687 -1.875,-0.54687 -1.15625,0 -1.70313,0.40625 -0.54687,0.40625 -0.8125,1.42187 l -1.60937,-0.21875 q 0.21875,-1.01562 0.71875,-1.64062 0.5,-0.64063 1.45312,-0.98438 0.95313,-0.34375 2.1875,-0.34375 1.25,0 2.01563,0.29688 0.78125,0.28125 1.14062,0.73437 0.375,0.4375 0.51563,1.10938 0.0781,0.42187 0.0781,1.51562 v 2.1875 q 0,2.28125 0.10938,2.89063 0.10937,0.59375 0.40625,1.15625 h -1.70313 q -0.26562,-0.51563 -0.32812,-1.1875 z m -0.14063,-3.67188 q -0.89062,0.375 -2.67187,0.625 -1.01563,0.14063 -1.4375,0.32813 -0.42188,0.1875 -0.65625,0.53125 -0.21875,0.34375 -0.21875,0.78125 0,0.65625 0.5,1.09375 0.5,0.4375 1.45312,0.4375 0.9375,0 1.67188,-0.40625 0.75,-0.42188 1.09375,-1.14063 0.26562,-0.5625 0.26562,-1.64062 z m 4.20383,4.85938 v -9.67188 h 1.46875 v 1.375 q 1.0625,-1.59375 3.07813,-1.59375 0.875,0 1.60937,0.3125 0.73438,0.3125 1.09375,0.82813 0.375,0.5 0.51563,1.20312 0.0937,0.45313 0.0937,1.59375 v 5.95313 h -1.64063 v -5.89063 q 0,-1 -0.20312,-1.48437 -0.1875,-0.5 -0.67188,-0.79688 -0.48437,-0.29687 -1.14062,-0.29687 -1.04688,0 -1.8125,0.67187 -0.75,0.65625 -0.75,2.51563 v 5.28125 z m 10.37573,-11.46875 v -1.89063 h 1.64063 v 1.89063 z m 0,11.46875 v -9.67188 h 1.64063 v 9.67188 z m 4.14481,0 v -9.67188 h 1.46875 v 1.35938 q 0.45312,-0.71875 1.20312,-1.14063 0.76563,-0.4375 1.71875,-0.4375 1.07813,0 1.76563,0.45313 0.6875,0.4375 0.96875,1.23437 1.15625,-1.6875 2.98437,-1.6875 1.45313,0 2.21875,0.79688 0.78125,0.79687 0.78125,2.45312 v 6.64063 h -1.64062 v -6.09375 q 0,-0.98438 -0.15625,-1.40625 -0.15625,-0.4375 -0.57813,-0.70313 -0.42187,-0.26562 -0.98437,-0.26562 -1.01563,0 -1.6875,0.6875 -0.67188,0.67187 -0.67188,2.15625 v 5.625 h -1.64062 v -6.28125 q 0,-1.09375 -0.40625,-1.64063 -0.40625,-0.54687 -1.3125,-0.54687 -0.6875,0 -1.28125,0.35937 -0.59375,0.35938 -0.85938,1.0625 -0.25,0.70313 -0.25,2.03125 v 5.01563 z m 21.8533,-1.1875 q -0.92187,0.76562 -1.76562,1.09375 -0.82813,0.3125 -1.79688,0.3125 -1.59375,0 -2.45312,-0.78125 -0.85938,-0.78125 -0.85938,-1.98438 0,-0.71875 0.32813,-1.29687 0.32812,-0.59375 0.84375,-0.9375 0.53125,-0.35938 1.1875,-0.54688 0.46875,-0.125 1.45312,-0.25 1.98438,-0.23437 2.92188,-0.5625 0.0156,-0.34375 0.0156,-0.42187 0,-1 -0.46875,-1.42188 -0.625,-0.54687 -1.875,-0.54687 -1.15625,0 -1.70312,0.40625 -0.54688,0.40625 -0.8125,1.42187 l -1.60938,-0.21875 q 0.21875,-1.01562 0.71875,-1.64062 0.5,-0.64063 1.45313,-0.98438 0.95312,-0.34375 2.1875,-0.34375 1.25,0 2.01562,0.29688 0.78125,0.28125 1.14063,0.73437 0.375,0.4375 0.51562,1.10938 0.0781,0.42187 0.0781,1.51562 v 2.1875 q 0,2.28125 0.10937,2.89063 0.10938,0.59375 0.40625,1.15625 h -1.70312 q -0.26563,-0.51563 -0.32813,-1.1875 z m -0.14062,-3.67188 q -0.89063,0.375 -2.67188,0.625 -1.01562,0.14063 -1.4375,0.32813 -0.42187,0.1875 -0.65625,0.53125 -0.21875,0.34375 -0.21875,0.78125 0,0.65625 0.5,1.09375 0.5,0.4375 1.45313,0.4375 0.9375,0 1.67187,-0.40625 0.75,-0.42188 1.09375,-1.14063 0.26563,-0.5625 0.26563,-1.64062 z m 4.15698,4.85938 v -13.35938 h 1.64062 v 13.35938 z m 7.25418,-3.28125 q 0,-0.32813 0,-0.5 0,-0.96875 0.26563,-1.67188 0.20312,-0.51562 0.64062,-1.0625 0.32813,-0.39062 1.17188,-1.14062 0.85937,-0.75 1.10937,-1.1875 0.26563,-0.45313 0.26563,-0.98438 0,-0.95312 -0.75,-1.67187 -0.73438,-0.73438 -1.82813,-0.73438 -1.04687,0 -1.75,0.65625 -0.70312,0.65625 -0.92187,2.04688 l -1.6875,-0.20313 q 0.23437,-1.85937 1.35937,-2.84375 1.125,-1 2.96875,-1 1.96875,0 3.125,1.0625 1.17188,1.0625 1.17188,2.57813 0,0.875 -0.40625,1.60937 -0.40625,0.73438 -1.60938,1.79688 -0.79687,0.70312 -1.04687,1.04687 -0.25,0.34375 -0.375,0.78125 -0.10938,0.4375 -0.125,1.42188 z m -0.0937,3.28125 v -1.875 h 1.85938 v 1.875 z"
       id="path15"
       inkscape:connector-curvature="0"
       style="fill:#000000;fill-rule:nonzero" />
    <path
       d="m 265.84253,262.85565 v 0 c 0,-6.49118 5.26212,-11.7533 11.75326,-11.7533 h 80.80841 c 3.11716,0 6.10666,1.2383 8.31083,3.44246 2.20416,2.20418 3.44244,5.19365 3.44244,8.31084 v 47.01312 c 0,6.49115 -5.26211,11.75327 -11.75326,11.75327 H 277.5958 c -6.49115,0 -11.75327,-5.26212 -11.75327,-11.75327 z"
       id="path17"
       inkscape:connector-curvature="0"
       style="fill:#a4c2f4;fill-rule:evenodd" />
    <path
       d="m 265.84253,262.85565 v 0 c 0,-6.49118 5.26212,-11.7533 11.75326,-11.7533 h 80.80841 c 3.11716,0 6.10666,1.2383 8.31083,3.44246 2.20416,2.20418 3.44244,5.19365 3.44244,8.31084 v 47.01312 c 0,6.49115 -5.26211,11.75327 -11.75326,11.75327 H 277.5958 c -6.49115,0 -11.75327,-5.26212 -11.75327,-11.75327 z"
       id="path19"
       inkscape:connector-curvature="0"
       style="fill-rule:evenodd;stroke:#000000;stroke-width:1;stroke-linecap:butt;stroke-linejoin:round" />
    <path
       d="m 275.59055,254.04724 h 84.81891 v 64.62991 h -84.81891 z"
       id="path21"
       inkscape:connector-curvature="0"
       style="fill:#a4c2f4;fill-rule:evenodd" />
    <path
       d="m 291.26242,271.29538 v 1.85938 h -1.85937 v -1.85938 z m -0.10937,3.28125 q 0.0156,0.3125 0.0156,0.46875 0,1 -0.28125,1.70313 -0.1875,0.53125 -0.64062,1.0625 -0.32813,0.39062 -1.1875,1.14062 -0.84375,0.75 -1.09375,1.20313 -0.25,0.4375 -0.25,0.96875 0,0.96875 0.75,1.6875 0.75,0.71875 1.82812,0.71875 1.03125,0 1.73438,-0.65625 0.71875,-0.65625 0.9375,-2.04688 l 1.67187,0.1875 q -0.23437,1.85938 -1.35937,2.85938 -1.125,1 -2.95313,1 -1.96875,0 -3.14062,-1.0625 -1.15625,-1.0625 -1.15625,-2.57813 0,-0.89062 0.40625,-1.60937 0.40625,-0.73438 1.59375,-1.79688 0.8125,-0.71875 1.0625,-1.04687 0.25,-0.34375 0.35937,-0.78125 0.10938,-0.4375 0.125,-1.42188 z m 9.64599,4.92188 0.23438,1.45312 q -0.6875,0.14063 -1.23438,0.14063 -0.89062,0 -1.39062,-0.28125 -0.48438,-0.28125 -0.6875,-0.73438 -0.20313,-0.46875 -0.20313,-1.9375 v -5.57812 h -1.20312 v -1.26563 h 1.20312 v -2.39062 l 1.625,-0.98438 v 3.375 h 1.65625 v 1.26563 h -1.65625 v 5.67187 q 0,0.6875 0.0781,0.89063 0.0937,0.20312 0.28125,0.32812 0.20312,0.10938 0.57812,0.10938 0.26563,0 0.71875,-0.0625 z m 1.60516,-10 v -1.89063 h 1.64063 v 1.89063 z m 0,11.46875 v -9.67188 h 1.64063 v 9.67188 z m 10.76984,-3.10938 1.6875,0.20313 q -0.40625,1.48437 -1.48437,2.3125 -1.07813,0.8125 -2.76563,0.8125 -2.125,0 -3.375,-1.29688 -1.23437,-1.3125 -1.23437,-3.67187 0,-2.45313 1.25,-3.79688 1.26562,-1.34375 3.26562,-1.34375 1.9375,0 3.15625,1.32813 1.23438,1.3125 1.23438,3.70312 0,0.15625 0,0.4375 h -7.21875 q 0.0937,1.59375 0.90625,2.45313 0.8125,0.84375 2.01562,0.84375 0.90625,0 1.54688,-0.46875 0.64062,-0.48438 1.01562,-1.51563 z m -5.39062,-2.65625 h 5.40625 q -0.10938,-1.21875 -0.625,-1.82812 -0.78125,-0.95313 -2.03125,-0.95313 -1.125,0 -1.90625,0.76563 -0.76563,0.75 -0.84375,2.01562 z m 9.14132,5.76563 v -9.67188 h 1.46875 v 1.375 q 1.0625,-1.59375 3.07813,-1.59375 0.875,0 1.60937,0.3125 0.73438,0.3125 1.09375,0.82813 0.375,0.5 0.51563,1.20312 0.0937,0.45313 0.0937,1.59375 v 5.95313 h -1.64063 v -5.89063 q 0,-1 -0.20312,-1.48437 -0.1875,-0.5 -0.67188,-0.79688 -0.48437,-0.29687 -1.14062,-0.29687 -1.04688,0 -1.8125,0.67187 -0.75,0.65625 -0.75,2.51563 v 5.28125 z m 17.00073,-3.10938 1.6875,0.20313 q -0.40625,1.48437 -1.48437,2.3125 -1.07813,0.8125 -2.76563,0.8125 -2.125,0 -3.375,-1.29688 -1.23437,-1.3125 -1.23437,-3.67187 0,-2.45313 1.25,-3.79688 1.26562,-1.34375 3.26562,-1.34375 1.9375,0 3.15625,1.32813 1.23438,1.3125 1.23438,3.70312 0,0.15625 0,0.4375 h -7.21875 q 0.0937,1.59375 0.90625,2.45313 0.8125,0.84375 2.01562,0.84375 0.90625,0 1.54688,-0.46875 0.64062,-0.48438 1.01562,-1.51563 z m -5.39062,-2.65625 h 5.40625 q -0.10938,-1.21875 -0.625,-1.82812 -0.78125,-0.95313 -2.03125,-0.95313 -1.125,0 -1.90625,0.76563 -0.76563,0.75 -0.84375,2.01562 z"
       id="path23"
       inkscape:connector-curvature="0"
       style="fill:#000000;fill-rule:nonzero" />
    <path
       d="m 285.82492,307.07037 v -13.375 h 1.48438 v 1.25 q 0.53125,-0.73437 1.1875,-1.09375 0.67187,-0.375 1.625,-0.375 1.23437,0 2.17187,0.64063 0.95313,0.625 1.4375,1.79687 0.48438,1.15625 0.48438,2.54688 0,1.48437 -0.53125,2.67187 -0.53125,1.1875 -1.54688,1.82813 -1.01562,0.625 -2.14062,0.625 -0.8125,0 -1.46875,-0.34375 -0.65625,-0.34375 -1.0625,-0.875 v 4.70312 z m 1.48438,-8.48437 q 0,1.85937 0.75,2.76562 0.76562,0.89063 1.82812,0.89063 1.09375,0 1.875,-0.92188 0.78125,-0.9375 0.78125,-2.875 0,-1.84375 -0.76562,-2.76562 -0.75,-0.92188 -1.8125,-0.92188 -1.04688,0 -1.85938,0.98438 -0.79687,0.96875 -0.79687,2.84375 z m 15.20385,3.59375 q -0.92187,0.76562 -1.76562,1.09375 -0.82813,0.3125 -1.79688,0.3125 -1.59375,0 -2.45312,-0.78125 -0.85938,-0.78125 -0.85938,-1.98438 0,-0.71875 0.32813,-1.29687 0.32812,-0.59375 0.84375,-0.9375 0.53125,-0.35938 1.1875,-0.54688 0.46875,-0.125 1.45312,-0.25 1.98438,-0.23437 2.92188,-0.5625 0.0156,-0.34375 0.0156,-0.42187 0,-1 -0.46875,-1.42188 -0.625,-0.54687 -1.875,-0.54687 -1.15625,0 -1.70312,0.40625 -0.54688,0.40625 -0.8125,1.42187 l -1.60938,-0.21875 q 0.21875,-1.01562 0.71875,-1.64062 0.5,-0.64063 1.45313,-0.98438 0.95312,-0.34375 2.1875,-0.34375 1.25,0 2.01562,0.29688 0.78125,0.28125 1.14063,0.73437 0.375,0.4375 0.51562,1.10938 0.0781,0.42187 0.0781,1.51562 v 2.1875 q 0,2.28125 0.10937,2.89063 0.10938,0.59375 0.40625,1.15625 h -1.70312 q -0.26563,-0.51563 -0.32813,-1.1875 z m -0.14062,-3.67188 q -0.89063,0.375 -2.67188,0.625 -1.01562,0.14063 -1.4375,0.32813 -0.42187,0.1875 -0.65625,0.53125 -0.21875,0.34375 -0.21875,0.78125 0,0.65625 0.5,1.09375 0.5,0.4375 1.45313,0.4375 0.9375,0 1.67187,-0.40625 0.75,-0.42188 1.09375,-1.14063 0.26563,-0.5625 0.26563,-1.64062 z m 7.78195,3.39063 0.23437,1.45312 q -0.6875,0.14063 -1.23437,0.14063 -0.89063,0 -1.39063,-0.28125 -0.48437,-0.28125 -0.6875,-0.73438 -0.20312,-0.46875 -0.20312,-1.9375 V 294.961 h -1.20313 v -1.26563 h 1.20313 v -2.39062 l 1.625,-0.98438 v 3.375 h 1.65625 v 1.26563 h -1.65625 v 5.67187 q 0,0.6875 0.0781,0.89063 0.0937,0.20312 0.28125,0.32812 0.20313,0.10938 0.57813,0.10938 0.26562,0 0.71875,-0.0625 z m 7.91769,0.28125 q -0.92187,0.76562 -1.76562,1.09375 -0.82813,0.3125 -1.79688,0.3125 -1.59375,0 -2.45312,-0.78125 -0.85938,-0.78125 -0.85938,-1.98438 0,-0.71875 0.32813,-1.29687 0.32812,-0.59375 0.84375,-0.9375 0.53125,-0.35938 1.1875,-0.54688 0.46875,-0.125 1.45312,-0.25 1.98438,-0.23437 2.92188,-0.5625 0.0156,-0.34375 0.0156,-0.42187 0,-1 -0.46875,-1.42188 -0.625,-0.54687 -1.875,-0.54687 -1.15625,0 -1.70312,0.40625 -0.54688,0.40625 -0.8125,1.42187 l -1.60938,-0.21875 q 0.21875,-1.01562 0.71875,-1.64062 0.5,-0.64063 1.45313,-0.98438 0.95312,-0.34375 2.1875,-0.34375 1.25,0 2.01562,0.29688 0.78125,0.28125 1.14063,0.73437 0.375,0.4375 0.51562,1.10938 0.0781,0.42187 0.0781,1.51562 v 2.1875 q 0,2.28125 0.10937,2.89063 0.10938,0.59375 0.40625,1.15625 h -1.70312 q -0.26563,-0.51563 -0.32813,-1.1875 z m -0.14062,-3.67188 q -0.89063,0.375 -2.67188,0.625 -1.01562,0.14063 -1.4375,0.32813 -0.42187,0.1875 -0.65625,0.53125 -0.21875,0.34375 -0.21875,0.78125 0,0.65625 0.5,1.09375 0.5,0.4375 1.45313,0.4375 0.9375,0 1.67187,-0.40625 0.75,-0.42188 1.09375,-1.14063 0.26563,-0.5625 0.26563,-1.64062 z m 3.54757,1.96875 1.625,-0.25 q 0.125,0.96875 0.75,1.5 0.625,0.51563 1.75,0.51563 1.125,0 1.67188,-0.45313 0.54687,-0.46875 0.54687,-1.09375 0,-0.54687 -0.48437,-0.875 -0.32813,-0.21875 -1.67188,-0.54687 -1.8125,-0.46875 -2.51562,-0.79688 -0.6875,-0.32812 -1.04688,-0.90625 -0.35937,-0.59375 -0.35937,-1.3125 0,-0.64062 0.29687,-1.1875 0.29688,-0.5625 0.8125,-0.92187 0.375,-0.28125 1.03125,-0.46875 0.67188,-0.20313 1.42188,-0.20313 1.14062,0 2,0.32813 0.85937,0.32812 1.26562,0.89062 0.42188,0.5625 0.57813,1.5 l -1.60938,0.21875 q -0.10937,-0.75 -0.64062,-1.17187 -0.51563,-0.42188 -1.46875,-0.42188 -1.14063,0 -1.625,0.375 -0.46875,0.375 -0.46875,0.875 0,0.3125 0.1875,0.57813 0.20312,0.26562 0.64062,0.4375 0.23438,0.0937 1.4375,0.42187 1.75,0.45313 2.4375,0.75 0.6875,0.29688 1.07813,0.85938 0.39062,0.5625 0.39062,1.40625 0,0.82812 -0.48437,1.54687 -0.46875,0.71875 -1.375,1.125 -0.90625,0.39063 -2.04688,0.39063 -1.875,0 -2.875,-0.78125 -0.98437,-0.78125 -1.25,-2.32813 z M 334.526,300.086 q 0,-0.32813 0,-0.5 0,-0.96875 0.26562,-1.67188 0.20313,-0.51562 0.64063,-1.0625 0.32812,-0.39062 1.17187,-1.14062 0.85938,-0.75 1.10938,-1.1875 0.26562,-0.45313 0.26562,-0.98438 0,-0.95312 -0.75,-1.67187 -0.73437,-0.73438 -1.82812,-0.73438 -1.04688,0 -1.75,0.65625 -0.70313,0.65625 -0.92188,2.04688 l -1.6875,-0.20313 q 0.23438,-1.85937 1.35938,-2.84375 1.125,-1 2.96875,-1 1.96875,0 3.125,1.0625 1.17187,1.0625 1.17187,2.57813 0,0.875 -0.40625,1.60937 -0.40625,0.73438 -1.60937,1.79688 -0.79688,0.70312 -1.04688,1.04687 -0.25,0.34375 -0.375,0.78125 -0.10937,0.4375 -0.125,1.42188 z m -0.0937,3.28125 v -1.875 h 1.85937 v 1.875 z"
       id="path25"
       inkscape:connector-curvature="0"
       style="fill:#000000;fill-rule:nonzero" />
    <path
       d="m 590.41205,284.7349 v 0 c 0,-6.49115 5.26215,-11.75327 11.7533,-11.75327 h 80.80841 c 3.11718,0 6.10662,1.23829 8.31085,3.44245 2.20416,2.20419 3.44244,5.19366 3.44244,8.31082 v 47.01312 c 0,6.49118 -5.26214,11.7533 -11.75329,11.7533 h -80.80841 c -6.49115,0 -11.7533,-5.26212 -11.7533,-11.7533 z"
       id="path27"
       inkscape:connector-curvature="0"
       style="fill:#93c47d;fill-rule:evenodd" />
    <path
       d="m 590.41205,284.7349 v 0 c 0,-6.49115 5.26215,-11.75327 11.7533,-11.75327 h 80.80841 c 3.11718,0 6.10662,1.23829 8.31085,3.44245 2.20416,2.20419 3.44244,5.19366 3.44244,8.31082 v 47.01312 c 0,6.49118 -5.26214,11.7533 -11.75329,11.7533 h -80.80841 c -6.49115,0 -11.7533,-5.26212 -11.7533,-11.7533 z"
       id="path29"
       inkscape:connector-curvature="0"
       style="fill-rule:evenodd;stroke:#000000;stroke-width:1;stroke-linecap:butt;stroke-linejoin:round" />
    <path
       d="m 595.8294,287.23358 h 93.48029 v 42.01575 H 595.8294 Z"
       id="path31"
       inkscape:connector-curvature="0"
       style="fill:#93c47d;fill-rule:evenodd" />
    <path
       d="m 612.5169,308.91922 v -1.57813 h 5.65625 v 4.95313 q -1.29688,1.04687 -2.6875,1.57812 -1.375,0.51563 -2.84375,0.51563 -1.96875,0 -3.57813,-0.84375 -1.60937,-0.84375 -2.42187,-2.4375 -0.8125,-1.59375 -0.8125,-3.5625 0,-1.95313 0.8125,-3.64063 0.8125,-1.6875 2.34375,-2.5 1.53125,-0.82812 3.51562,-0.82812 1.45313,0 2.625,0.46875 1.17188,0.46875 1.82813,1.3125 0.67187,0.82812 1.01562,2.17187 l -1.59375,0.4375 q -0.29687,-1.01562 -0.75,-1.59375 -0.4375,-0.59375 -1.26562,-0.9375 -0.82813,-0.34375 -1.84375,-0.34375 -1.20313,0 -2.09375,0.375 -0.89063,0.35938 -1.4375,0.96875 -0.53125,0.59375 -0.82813,1.3125 -0.51562,1.23438 -0.51562,2.6875 0,1.78125 0.60937,2.98438 0.625,1.20312 1.79688,1.79687 1.17187,0.57813 2.5,0.57813 1.14062,0 2.23437,-0.4375 1.09375,-0.45313 1.65625,-0.95313 v -2.48437 z m 14.68329,2.125 1.6875,0.20312 q -0.40625,1.48438 -1.48438,2.3125 -1.07812,0.8125 -2.76562,0.8125 -2.125,0 -3.375,-1.29687 -1.23438,-1.3125 -1.23438,-3.67188 0,-2.45312 1.25,-3.79687 1.26563,-1.34375 3.26563,-1.34375 1.9375,0 3.15625,1.32812 1.23437,1.3125 1.23437,3.70313 0,0.15625 0,0.4375 h -7.21875 q 0.0937,1.59375 0.90625,2.45312 0.8125,0.84375 2.01563,0.84375 0.90625,0 1.54687,-0.46875 0.64063,-0.48437 1.01563,-1.51562 z m -5.39063,-2.65625 h 5.40625 q -0.10937,-1.21875 -0.625,-1.82813 -0.78125,-0.95312 -2.03125,-0.95312 -1.125,0 -1.90625,0.76562 -0.76562,0.75 -0.84375,2.01563 z m 9.12574,5.76562 v -9.67187 h 1.46875 v 1.46875 q 0.5625,-1.03125 1.03125,-1.35938 0.48437,-0.32812 1.0625,-0.32812 0.82812,0 1.6875,0.53125 l -0.5625,1.51562 q -0.60938,-0.35937 -1.20313,-0.35937 -0.54687,0 -0.96875,0.32812 -0.42187,0.32813 -0.60937,0.89063 -0.28125,0.875 -0.28125,1.92187 v 5.0625 z m 12.54077,-1.1875 q -0.92188,0.76563 -1.76563,1.09375 -0.82812,0.3125 -1.79687,0.3125 -1.59375,0 -2.45313,-0.78125 -0.85937,-0.78125 -0.85937,-1.98437 0,-0.71875 0.32812,-1.29688 0.32813,-0.59375 0.84375,-0.9375 0.53125,-0.35937 1.1875,-0.54687 0.46875,-0.125 1.45313,-0.25 1.98437,-0.23438 2.92187,-0.5625 0.0156,-0.34375 0.0156,-0.42188 0,-1 -0.46875,-1.42187 -0.625,-0.54688 -1.875,-0.54688 -1.15625,0 -1.70313,0.40625 -0.54687,0.40625 -0.8125,1.42188 l -1.60937,-0.21875 q 0.21875,-1.01563 0.71875,-1.64063 0.5,-0.64062 1.45312,-0.98437 0.95313,-0.34375 2.1875,-0.34375 1.25,0 2.01563,0.29687 0.78125,0.28125 1.14062,0.73438 0.375,0.4375 0.51563,1.10937 0.0781,0.42188 0.0781,1.51563 v 2.1875 q 0,2.28125 0.10938,2.89062 0.10937,0.59375 0.40625,1.15625 h -1.70313 q -0.26562,-0.51562 -0.32812,-1.1875 z m -0.14063,-3.67187 q -0.89062,0.375 -2.67187,0.625 -1.01563,0.14062 -1.4375,0.32812 -0.42188,0.1875 -0.65625,0.53125 -0.21875,0.34375 -0.21875,0.78125 0,0.65625 0.5,1.09375 0.5,0.4375 1.45312,0.4375 0.9375,0 1.67188,-0.40625 0.75,-0.42187 1.09375,-1.14062 0.26562,-0.5625 0.26562,-1.64063 z m 4.20386,4.85937 v -9.67187 h 1.46875 v 1.375 q 1.0625,-1.59375 3.07812,-1.59375 0.875,0 1.60938,0.3125 0.73437,0.3125 1.09375,0.82812 0.375,0.5 0.51562,1.20313 0.0937,0.45312 0.0937,1.59375 v 5.95312 H 653.758 v -5.89062 q 0,-1 -0.20313,-1.48438 -0.1875,-0.5 -0.67187,-0.79687 -0.48438,-0.29688 -1.14063,-0.29688 -1.04687,0 -1.8125,0.67188 -0.75,0.65625 -0.75,2.51562 v 5.28125 z m 10.37573,-11.46875 v -1.89062 h 1.64063 v 1.89062 z m 0,11.46875 v -9.67187 h 1.64063 v 9.67187 z m 3.53546,-4.84375 q 0,-2.6875 1.48438,-3.96875 1.25,-1.07812 3.04687,-1.07812 2,0 3.26563,1.3125 1.26562,1.29687 1.26562,3.60937 0,1.85938 -0.5625,2.9375 -0.5625,1.0625 -1.64062,1.65625 -1.0625,0.59375 -2.32813,0.59375 -2.03125,0 -3.28125,-1.29687 -1.25,-1.3125 -1.25,-3.76563 z m 1.6875,0 q 0,1.85938 0.79688,2.79688 0.8125,0.92187 2.04687,0.92187 1.21875,0 2.03125,-0.92187 0.8125,-0.9375 0.8125,-2.84375 0,-1.79688 -0.8125,-2.71875 -0.8125,-0.92188 -2.03125,-0.92188 -1.23437,0 -2.04687,0.92188 -0.79688,0.90625 -0.79688,2.76562 z"
       id="path33"
       inkscape:connector-curvature="0"
       style="fill:#000000;fill-rule:nonzero" />
    <path
       d="m 128.86089,362.937 v 0 c 0,-6.49115 5.26213,-11.7533 11.75328,-11.7533 h 80.80841 c 3.11716,0 6.10666,1.23832 8.31082,3.44248 2.20417,2.20416 3.44246,5.19366 3.44246,8.31082 v 47.01312 c 0,6.49115 -5.26213,11.75327 -11.75328,11.75327 h -80.80841 c -6.49115,0 -11.75328,-5.26212 -11.75328,-11.75327 z"
       id="path35"
       inkscape:connector-curvature="0"
       style="fill:#93c47d;fill-rule:evenodd" />
    <path
       d="m 128.86089,362.937 v 0 c 0,-6.49115 5.26213,-11.7533 11.75328,-11.7533 h 80.80841 c 3.11716,0 6.10666,1.23832 8.31082,3.44248 2.20417,2.20416 3.44246,5.19366 3.44246,8.31082 v 47.01312 c 0,6.49115 -5.26213,11.75327 -11.75328,11.75327 h -80.80841 c -6.49115,0 -11.75328,-5.26212 -11.75328,-11.75327 z"
       id="path37"
       inkscape:connector-curvature="0"
       style="fill-rule:evenodd;stroke:#000000;stroke-width:1;stroke-linecap:butt;stroke-linejoin:round" />
    <path
       d="m 148.68767,365.4357 h 84.81889 v 42.01575 h -84.81889 z"
       id="path39"
       inkscape:connector-curvature="0"
       style="fill:#93c47d;fill-rule:evenodd" />
    <path
       d="M 159.12517,392.35568 V 378.9963 h 5.04687 q 1.32813,0 2.03125,0.125 0.96875,0.17188 1.64063,0.64063 0.67187,0.45312 1.07812,1.28125 0.40625,0.82812 0.40625,1.82812 0,1.70313 -1.09375,2.89063 -1.07812,1.17187 -3.92187,1.17187 h -3.42188 v 5.42188 z m 1.76562,-7 h 3.45313 q 1.71875,0 2.4375,-0.64063 0.71875,-0.64062 0.71875,-1.79687 0,-0.84375 -0.42188,-1.4375 -0.42187,-0.59375 -1.125,-0.78125 -0.4375,-0.125 -1.64062,-0.125 h -3.42188 z m 17.09983,3.89062 1.6875,0.20313 q -0.40625,1.48437 -1.48438,2.3125 -1.07812,0.8125 -2.76562,0.8125 -2.125,0 -3.375,-1.29688 -1.23438,-1.3125 -1.23438,-3.67187 0,-2.45313 1.25,-3.79688 1.26563,-1.34375 3.26563,-1.34375 1.9375,0 3.15625,1.32813 1.23437,1.3125 1.23437,3.70312 0,0.15625 0,0.4375 h -7.21875 q 0.0937,1.59375 0.90625,2.45313 0.8125,0.84375 2.01563,0.84375 0.90625,0 1.54687,-0.46875 0.64063,-0.48438 1.01563,-1.51563 z m -5.39063,-2.65625 h 5.40625 q -0.10937,-1.21875 -0.625,-1.82812 -0.78125,-0.95313 -2.03125,-0.95313 -1.125,0 -1.90625,0.76563 -0.76562,0.75 -0.84375,2.01562 z m 9.12572,5.76563 v -9.67188 h 1.46875 v 1.46875 q 0.5625,-1.03125 1.03125,-1.35937 0.48437,-0.32813 1.0625,-0.32813 0.82812,0 1.6875,0.53125 l -0.5625,1.51563 q -0.60938,-0.35938 -1.20313,-0.35938 -0.54687,0 -0.96875,0.32813 -0.42187,0.32812 -0.60937,0.89062 -0.28125,0.875 -0.28125,1.92188 v 5.0625 z m 6.21268,0 v -9.67188 h 1.46875 v 1.46875 q 0.5625,-1.03125 1.03125,-1.35937 0.48437,-0.32813 1.0625,-0.32813 0.82812,0 1.6875,0.53125 l -0.5625,1.51563 q -0.60938,-0.35938 -1.20313,-0.35938 -0.54687,0 -0.96875,0.32813 -0.42187,0.32812 -0.60937,0.89062 -0.28125,0.875 -0.28125,1.92188 v 5.0625 z m 5.61892,-4.84375 q 0,-2.6875 1.48438,-3.96875 1.25,-1.07813 3.04687,-1.07813 2,0 3.26563,1.3125 1.26562,1.29688 1.26562,3.60938 0,1.85937 -0.5625,2.9375 -0.5625,1.0625 -1.64062,1.65625 -1.0625,0.59375 -2.32813,0.59375 -2.03125,0 -3.28125,-1.29688 -1.25,-1.3125 -1.25,-3.76562 z m 1.6875,0 q 0,1.85937 0.79688,2.79687 0.8125,0.92188 2.04687,0.92188 1.21875,0 2.03125,-0.92188 0.8125,-0.9375 0.8125,-2.84375 0,-1.79687 -0.8125,-2.71875 -0.8125,-0.92187 -2.03125,-0.92187 -1.23437,0 -2.04687,0.92187 -0.79688,0.90625 -0.79688,2.76563 z"
       id="path41"
       inkscape:connector-curvature="0"
       style="fill:#000000;fill-rule:nonzero" />
    <path
       d="m 411.47507,182.19948 -93.48032,68.91338"
       id="path43"
       inkscape:connector-curvature="0"
       style="fill:#000000;fill-opacity:0;fill-rule:evenodd" />
    <path
       d="m 411.47507,182.19948 -88.65079,65.35307"
       id="path45"
       inkscape:connector-curvature="0"
       style="fill-rule:evenodd;stroke:#000000;stroke-width:1;stroke-linecap:butt;stroke-linejoin:round" />
    <path
       d="m 321.84415,246.22304 -2.67267,4.02235 4.63291,-1.36332 z"
       id="path47"
       inkscape:connector-curvature="0"
       style="fill:#000000;fill-rule:evenodd;stroke:#000000;stroke-width:1;stroke-linecap:butt" />
    <path
       d="m 515.79004,182.19948 126.77167,90.77165"
       id="path49"
       inkscape:connector-curvature="0"
       style="fill:#000000;fill-opacity:0;fill-rule:evenodd" />
    <path
       d="m 515.79004,182.19948 121.89325,87.27861"
       id="path51"
       inkscape:connector-curvature="0"
       style="fill-rule:evenodd;stroke:#000000;stroke-width:1;stroke-linecap:butt;stroke-linejoin:round" />
    <path
       d="m 636.7217,270.82104 4.65137,1.29901 -2.72815,-3.98492 z"
       id="path53"
       inkscape:connector-curvature="0"
       style="fill:#000000;fill-rule:evenodd;stroke:#000000;stroke-width:1;stroke-linecap:butt" />
    <path
       d="m 332.12598,186.61154 h 52.91339 v 42.01576 h -52.91339 z"
       id="path55"
       inkscape:connector-curvature="0"
       style="fill:#000000;fill-opacity:0;fill-rule:evenodd" />
    <path
       d="m 341.96973,209.23466 1.65625,-0.14063 q 0.125,1 0.54688,1.64063 0.4375,0.64062 1.34375,1.04687 0.92187,0.39063 2.0625,0.39063 1,0 1.78125,-0.29688 0.78125,-0.29687 1.15625,-0.8125 0.375,-0.53125 0.375,-1.15625 0,-0.625 -0.375,-1.09375 -0.35938,-0.46875 -1.1875,-0.79687 -0.54688,-0.20313 -2.39063,-0.64063 -1.82812,-0.45312 -2.5625,-0.84375 -0.96875,-0.5 -1.4375,-1.23437 -0.46875,-0.75 -0.46875,-1.67188 0,-1 0.57813,-1.875 0.57812,-0.89062 1.67187,-1.34375 1.10938,-0.45312 2.45313,-0.45312 1.48437,0 2.60937,0.48437 1.14063,0.46875 1.75,1.40625 0.60938,0.92188 0.65625,2.09375 l -1.6875,0.125 q -0.14062,-1.26562 -0.9375,-1.90625 -0.78125,-0.65625 -2.3125,-0.65625 -1.60937,0 -2.34375,0.59375 -0.73437,0.59375 -0.73437,1.42188 0,0.71875 0.53125,1.17187 0.5,0.46875 2.65625,0.96875 2.15625,0.48438 2.95312,0.84375 1.17188,0.53125 1.71875,1.35938 0.5625,0.82812 0.5625,1.90625 0,1.0625 -0.60937,2.01562 -0.60938,0.9375 -1.75,1.46875 -1.14063,0.51563 -2.57813,0.51563 -1.8125,0 -3.04687,-0.53125 -1.21875,-0.53125 -1.92188,-1.59375 -0.6875,-1.0625 -0.71875,-2.40625 z m 13.3967,4.29687 v -9.67187 h 1.64062 v 9.67187 z m -0.0781,-10.875 1.21875,-2.54687 h 2.15625 l -2.01562,2.54687 z"
       id="path57"
       inkscape:connector-curvature="0"
       style="fill:#000000;fill-rule:nonzero" />
    <path
       d="m 265.84253,286.3622 -84.81891,64.81888"
       id="path59"
       inkscape:connector-curvature="0"
       style="fill:#000000;fill-opacity:0;fill-rule:evenodd" />
    <path
       d="m 265.84253,286.3622 -80.0516,61.17569"
       id="path61"
       inkscape:connector-curvature="0"
       style="fill-rule:evenodd;stroke:#000000;stroke-width:1;stroke-linecap:butt;stroke-linejoin:round" />
    <path
       d="m 184.788,346.22552 -2.60281,4.0679 4.60867,-1.44311 z"
       id="path63"
       inkscape:connector-curvature="0"
       style="fill:#000000;fill-rule:evenodd;stroke:#000000;stroke-width:1;stroke-linecap:butt" />
    <path
       d="m 171.61154,287.23358 h 52.91339 v 42.01575 h -52.91339 z"
       id="path65"
       inkscape:connector-curvature="0"
       style="fill:#000000;fill-opacity:0;fill-rule:evenodd" />
    <path
       d="m 181.45529,309.85672 1.65625,-0.14063 q 0.125,1 0.54687,1.64063 0.4375,0.64062 1.34375,1.04687 0.92188,0.39063 2.0625,0.39063 1,0 1.78125,-0.29688 0.78125,-0.29687 1.15625,-0.8125 0.375,-0.53125 0.375,-1.15625 0,-0.625 -0.375,-1.09375 -0.35937,-0.46875 -1.1875,-0.79687 -0.54687,-0.20313 -2.39062,-0.64063 -1.82813,-0.45312 -2.5625,-0.84375 -0.96875,-0.5 -1.4375,-1.23437 -0.46875,-0.75 -0.46875,-1.67188 0,-1 0.57812,-1.875 0.57813,-0.89062 1.67188,-1.34375 1.10937,-0.45312 2.45312,-0.45312 1.48438,0 2.60938,0.48437 1.14062,0.46875 1.75,1.40625 0.60937,0.92188 0.65625,2.09375 l -1.6875,0.125 q -0.14063,-1.26562 -0.9375,-1.90625 -0.78125,-0.65625 -2.3125,-0.65625 -1.60938,0 -2.34375,0.59375 -0.73438,0.59375 -0.73438,1.42188 0,0.71875 0.53125,1.17187 0.5,0.46875 2.65625,0.96875 2.15625,0.48438 2.95313,0.84375 1.17187,0.53125 1.71875,1.35938 0.5625,0.82812 0.5625,1.90625 0,1.0625 -0.60938,2.01562 -0.60937,0.9375 -1.75,1.46875 -1.14062,0.51563 -2.57812,0.51563 -1.8125,0 -3.04688,-0.53125 -1.21875,-0.53125 -1.92187,-1.59375 -0.6875,-1.0625 -0.71875,-2.40625 z m 13.3967,4.29687 v -9.67187 h 1.64062 v 9.67187 z m -0.0781,-10.875 1.21875,-2.54687 h 2.15625 l -2.01562,2.54687 z"
       id="path67"
       inkscape:connector-curvature="0"
       style="fill:#000000;fill-rule:nonzero" />
    <path
       d="m 419.47507,362.937 v 0 c 0,-6.49115 5.26212,-11.7533 11.75327,-11.7533 h 80.8084 c 3.11719,0 6.10669,1.23832 8.31086,3.44248 2.20416,2.20416 3.44244,5.19366 3.44244,8.31082 v 47.01312 c 0,6.49115 -5.26215,11.75327 -11.7533,11.75327 h -80.80841 c -6.49115,0 -11.75326,-5.26212 -11.75326,-11.75327 z"
       id="path69"
       inkscape:connector-curvature="0"
       style="fill:#93c47d;fill-rule:evenodd" />
    <path
       d="m 419.47507,362.937 v 0 c 0,-6.49115 5.26212,-11.7533 11.75327,-11.7533 h 80.8084 c 3.11719,0 6.10669,1.23832 8.31086,3.44248 2.20416,2.20416 3.44244,5.19366 3.44244,8.31082 v 47.01312 c 0,6.49115 -5.26215,11.75327 -11.7533,11.75327 h -80.80841 c -6.49115,0 -11.75326,-5.26212 -11.75326,-11.75327 z"
       id="path71"
       inkscape:connector-curvature="0"
       style="fill-rule:evenodd;stroke:#000000;stroke-width:1;stroke-linecap:butt;stroke-linejoin:round" />
    <path
       d="m 429.22308,365.4357 h 84.81891 v 42.01575 h -84.81891 z"
       id="path73"
       inkscape:connector-curvature="0"
       style="fill:#93c47d;fill-rule:evenodd" />
    <path
       d="m 445.91058,387.1213 v -1.57812 h 5.65625 v 4.95312 q -1.29688,1.04688 -2.6875,1.57813 -1.375,0.51562 -2.84375,0.51562 -1.96875,0 -3.57813,-0.84375 -1.60937,-0.84375 -2.42187,-2.4375 -0.8125,-1.59375 -0.8125,-3.5625 0,-1.95312 0.8125,-3.64062 0.8125,-1.6875 2.34375,-2.5 1.53125,-0.82813 3.51562,-0.82813 1.45313,0 2.625,0.46875 1.17188,0.46875 1.82813,1.3125 0.67187,0.82813 1.01562,2.17188 l -1.59375,0.4375 q -0.29687,-1.01563 -0.75,-1.59375 -0.4375,-0.59375 -1.26562,-0.9375 -0.82813,-0.34375 -1.84375,-0.34375 -1.20313,0 -2.09375,0.375 -0.89063,0.35937 -1.4375,0.96875 -0.53125,0.59375 -0.82813,1.3125 -0.51562,1.23437 -0.51562,2.6875 0,1.78125 0.60937,2.98437 0.625,1.20313 1.79688,1.79688 1.17187,0.57812 2.5,0.57812 1.14062,0 2.23437,-0.4375 1.09375,-0.45312 1.65625,-0.95312 v -2.48438 z m 14.38644,5.23438 v -1.42188 q -1.125,1.64063 -3.0625,1.64063 -0.85937,0 -1.60937,-0.32813 -0.73438,-0.32812 -1.09375,-0.82812 -0.35938,-0.5 -0.5,-1.21875 -0.10938,-0.46875 -0.10938,-1.53125 v -5.98438 h 1.64063 v 5.35938 q 0,1.28125 0.10937,1.73437 0.15625,0.64063 0.65625,1.01563 0.5,0.375 1.23438,0.375 0.73437,0 1.375,-0.375 0.65625,-0.39063 0.92187,-1.03125 0.26563,-0.65625 0.26563,-1.89063 v -5.1875 h 1.64062 v 9.67188 z m 3.39133,-2.89063 1.625,-0.25 q 0.125,0.96875 0.75,1.5 0.625,0.51563 1.75,0.51563 1.125,0 1.67188,-0.45313 0.54687,-0.46875 0.54687,-1.09375 0,-0.54687 -0.48437,-0.875 -0.32813,-0.21875 -1.67188,-0.54687 -1.8125,-0.46875 -2.51562,-0.79688 -0.6875,-0.32812 -1.04688,-0.90625 -0.35937,-0.59375 -0.35937,-1.3125 0,-0.64062 0.29687,-1.1875 0.29688,-0.5625 0.8125,-0.92187 0.375,-0.28125 1.03125,-0.46875 0.67188,-0.20313 1.42188,-0.20313 1.14062,0 2,0.32813 0.85937,0.32812 1.26562,0.89062 0.42188,0.5625 0.57813,1.5 l -1.60938,0.21875 q -0.10937,-0.75 -0.64062,-1.17187 -0.51563,-0.42188 -1.46875,-0.42188 -1.14063,0 -1.625,0.375 -0.46875,0.375 -0.46875,0.875 0,0.3125 0.1875,0.57813 0.20312,0.26562 0.64062,0.4375 0.23438,0.0937 1.4375,0.42187 1.75,0.45313 2.4375,0.75 0.6875,0.29688 1.07813,0.85938 0.39062,0.5625 0.39062,1.40625 0,0.82812 -0.48437,1.54687 -0.46875,0.71875 -1.375,1.125 -0.90625,0.39063 -2.04688,0.39063 -1.875,0 -2.875,-0.78125 -0.98437,-0.78125 -1.25,-2.32813 z m 16.29688,1.70313 q -0.92188,0.76562 -1.76563,1.09375 -0.82812,0.3125 -1.79687,0.3125 -1.59375,0 -2.45313,-0.78125 -0.85937,-0.78125 -0.85937,-1.98438 0,-0.71875 0.32812,-1.29687 0.32813,-0.59375 0.84375,-0.9375 0.53125,-0.35938 1.1875,-0.54688 0.46875,-0.125 1.45313,-0.25 1.98437,-0.23437 2.92187,-0.5625 0.0156,-0.34375 0.0156,-0.42187 0,-1 -0.46875,-1.42188 -0.625,-0.54687 -1.875,-0.54687 -1.15625,0 -1.70313,0.40625 -0.54687,0.40625 -0.8125,1.42187 l -1.60937,-0.21875 q 0.21875,-1.01562 0.71875,-1.64062 0.5,-0.64063 1.45312,-0.98438 0.95313,-0.34375 2.1875,-0.34375 1.25,0 2.01563,0.29688 0.78125,0.28125 1.14062,0.73437 0.375,0.4375 0.51563,1.10938 0.0781,0.42187 0.0781,1.51562 v 2.1875 q 0,2.28125 0.10938,2.89063 0.10937,0.59375 0.40625,1.15625 h -1.70313 q -0.26562,-0.51563 -0.32812,-1.1875 z m -0.14063,-3.67188 q -0.89062,0.375 -2.67187,0.625 -1.01563,0.14063 -1.4375,0.32813 -0.42188,0.1875 -0.65625,0.53125 -0.21875,0.34375 -0.21875,0.78125 0,0.65625 0.5,1.09375 0.5,0.4375 1.45312,0.4375 0.9375,0 1.67188,-0.40625 0.75,-0.42188 1.09375,-1.14063 0.26562,-0.5625 0.26562,-1.64062 z m 4.20386,4.85938 v -9.67188 h 1.46875 v 1.375 q 1.0625,-1.59375 3.07812,-1.59375 0.875,0 1.60938,0.3125 0.73437,0.3125 1.09375,0.82813 0.375,0.5 0.51562,1.20312 0.0937,0.45313 0.0937,1.59375 v 5.95313 h -1.64062 v -5.89063 q 0,-1 -0.20313,-1.48437 -0.1875,-0.5 -0.67187,-0.79688 -0.48438,-0.29687 -1.14063,-0.29687 -1.04687,0 -1.8125,0.67187 -0.75,0.65625 -0.75,2.51563 v 5.28125 z m 9.76633,-4.84375 q 0,-2.6875 1.48437,-3.96875 1.25,-1.07813 3.04688,-1.07813 2,0 3.26562,1.3125 1.26563,1.29688 1.26563,3.60938 0,1.85937 -0.5625,2.9375 -0.5625,1.0625 -1.64063,1.65625 -1.0625,0.59375 -2.32812,0.59375 -2.03125,0 -3.28125,-1.29688 -1.25,-1.3125 -1.25,-3.76562 z m 1.6875,0 q 0,1.85937 0.79687,2.79687 0.8125,0.92188 2.04688,0.92188 1.21875,0 2.03125,-0.92188 0.8125,-0.9375 0.8125,-2.84375 0,-1.79687 -0.8125,-2.71875 -0.8125,-0.92187 -2.03125,-0.92187 -1.23438,0 -2.04688,0.92187 -0.79687,0.90625 -0.79687,2.76563 z"
       id="path75"
       inkscape:connector-curvature="0"
       style="fill:#000000;fill-rule:nonzero" />
    <path
       d="m 370.15747,286.3622 101.48032,64.81888"
       id="path77"
       inkscape:connector-curvature="0"
       style="fill:#000000;fill-opacity:0;fill-rule:evenodd" />
    <path
       d="m 370.15747,286.3622 96.42377,61.58911"
       id="path79"
       inkscape:connector-curvature="0"
       style="fill-rule:evenodd;stroke:#000000;stroke-width:1;stroke-linecap:butt;stroke-linejoin:round" />
    <path
       d="m 465.69214,349.34332 4.71362,1.05084 -2.93536,-3.83484 z"
       id="path81"
       inkscape:connector-curvature="0"
       style="fill:#000000;fill-rule:evenodd;stroke:#000000;stroke-width:1;stroke-linecap:butt" />
    <path
       d="m 583.063,186.61154 h 52.91339 V 228.6273 H 583.063 Z"
       id="path83"
       inkscape:connector-curvature="0"
       style="fill:#000000;fill-opacity:0;fill-rule:evenodd" />
    <path
       d="m 593.48486,213.53154 v -13.35938 h 1.8125 l 7.01563,10.48438 v -10.48438 h 1.6875 v 13.35938 h -1.8125 l -7.01563,-10.5 v 10.5 z m 12.67609,-4.84375 q 0,-2.6875 1.48437,-3.96875 1.25,-1.07813 3.04688,-1.07813 2,0 3.26562,1.3125 1.26563,1.29688 1.26563,3.60938 0,1.85937 -0.5625,2.9375 -0.5625,1.0625 -1.64063,1.65625 -1.0625,0.59375 -2.32812,0.59375 -2.03125,0 -3.28125,-1.29688 -1.25,-1.3125 -1.25,-3.76562 z m 1.6875,0 q 0,1.85937 0.79687,2.79687 0.8125,0.92188 2.04688,0.92188 1.21875,0 2.03125,-0.92188 0.8125,-0.9375 0.8125,-2.84375 0,-1.79687 -0.8125,-2.71875 -0.8125,-0.92187 -2.03125,-0.92187 -1.23438,0 -2.04688,0.92187 -0.79687,0.90625 -0.79687,2.76563 z"
       id="path85"
       inkscape:connector-curvature="0"
       style="fill:#000000;fill-rule:nonzero" />
    <path
       d="m 411.47507,272.86484 h 52.91339 v 42.01575 h -52.91339 z"
       id="path87"
       inkscape:connector-curvature="0"
       style="fill:#000000;fill-opacity:0;fill-rule:evenodd" />
    <path
       d="m 421.89694,299.78482 v -13.35937 h 1.8125 l 7.01562,10.48437 v -10.48437 h 1.6875 v 13.35937 h -1.8125 l -7.01562,-10.5 v 10.5 z m 12.67606,-4.84375 q 0,-2.6875 1.48437,-3.96875 1.25,-1.07812 3.04688,-1.07812 2,0 3.26562,1.3125 1.26563,1.29687 1.26563,3.60937 0,1.85938 -0.5625,2.9375 -0.5625,1.0625 -1.64063,1.65625 -1.0625,0.59375 -2.32812,0.59375 -2.03125,0 -3.28125,-1.29687 -1.25,-1.3125 -1.25,-3.76563 z m 1.6875,0 q 0,1.85938 0.79687,2.79688 0.8125,0.92187 2.04688,0.92187 1.21875,0 2.03125,-0.92187 0.8125,-0.9375 0.8125,-2.84375 0,-1.79688 -0.8125,-2.71875 -0.8125,-0.92188 -2.03125,-0.92188 -1.23438,0 -2.04688,0.92188 -0.79687,0.90625 -0.79687,2.76562 z"
       id="path89"
       inkscape:connector-curvature="0"
       style="fill:#000000;fill-rule:nonzero" />
  </g>
</svg>
